<svg width="19" height="19" viewBox="0 0 19 19" fill="none" xmlns="http://www.w3.org/2000/svg">
<path d="M3.98398 13.0001H12V15.0161H3.98398V13.0001V13.0001ZM3.98398 10.0001H12V12.0161H3.98398V10.0001ZM3.98398 7.00011H12V9.01611H3.98398V7.00011ZM15.984 0.0161133V3.01611H18.984V4.98511H15.984V7.98511H14.015V4.98511H11.015V3.01611H14.015V0.0161133H15.984V0.0161133ZM14.016 17.2191V10.0001H15.985V16.9841C15.985 17.5154 15.7896 17.9841 15.399 18.3901C15.0083 18.7961 14.5473 18.9991 14.016 18.9991H2.01598C1.48464 18.9991 1.01598 18.7961 0.609977 18.3901C0.203977 17.9841 0.000976562 17.5154 0.000976562 16.9841V4.98411C0.000976562 4.45278 0.203977 3.99178 0.609977 3.60111C1.01598 3.21045 1.48464 3.01511 2.01598 3.01511H8.99998V4.98411H2.01598V17.2181H14.016V17.2191Z" fill="#313131" fill-opacity="0.73"/>
</svg>
