<svg width="65" height="14" viewBox="0 0 65 14" fill="none" xmlns="http://www.w3.org/2000/svg">
<path d="M4.46895 13.9302C3.60495 13.9302 2.83695 13.7862 2.16495 13.4982C1.50495 13.2102 0.862949 12.7602 0.238949 12.1482C0.0949492 12.0282 0.0229492 11.8842 0.0229492 11.7162C0.0229492 11.5722 0.0769492 11.4402 0.184949 11.3202C0.304949 11.2002 0.436949 11.1402 0.580949 11.1402C0.724949 11.1402 0.856949 11.2002 0.976949 11.3202C1.91295 12.3522 3.08295 12.8682 4.48695 12.8682C5.35095 12.8682 6.06495 12.6642 6.62895 12.2562C7.20495 11.8482 7.49295 11.3142 7.49295 10.6542C7.49295 10.1382 7.34895 9.71222 7.06095 9.37622C6.78495 9.02822 6.41895 8.74622 5.96295 8.53022C5.50695 8.31422 4.92495 8.09222 4.21695 7.86422C3.44895 7.63622 2.80095 7.38422 2.27295 7.10822C1.75695 6.83222 1.33695 6.46622 1.01295 6.01022C0.688949 5.54222 0.526949 4.95422 0.526949 4.24622C0.526949 3.61022 0.694949 3.04622 1.03095 2.55422C1.37895 2.06221 1.85895 1.67821 2.47095 1.40221C3.09495 1.11421 3.80895 0.970215 4.61295 0.970215C5.34495 0.970215 6.02895 1.09622 6.66495 1.34822C7.31295 1.58822 7.82895 1.93622 8.21295 2.39221C8.39295 2.59622 8.48295 2.77022 8.48295 2.91421C8.48295 3.04622 8.42295 3.17222 8.30295 3.29222C8.18295 3.40022 8.05095 3.45422 7.90695 3.45422C7.78695 3.45422 7.68495 3.41222 7.60095 3.32821C7.27695 2.94422 6.84495 2.63222 6.30495 2.39221C5.76495 2.15222 5.20095 2.03222 4.61295 2.03222C3.73695 2.03222 3.02295 2.23022 2.47095 2.62622C1.91895 3.01022 1.64295 3.53822 1.64295 4.21022C1.64295 4.90622 1.90695 5.44022 2.43495 5.81222C2.96295 6.18422 3.71895 6.52622 4.70295 6.83822C5.55495 7.09022 6.25095 7.34822 6.79095 7.61222C7.33095 7.87622 7.76895 8.25422 8.10495 8.74622C8.45295 9.22622 8.62695 9.86222 8.62695 10.6542C8.62695 11.2662 8.44695 11.8242 8.08695 12.3282C7.73895 12.8202 7.24695 13.2102 6.61095 13.4982C5.98695 13.7862 5.27295 13.9302 4.46895 13.9302Z" fill="#313131"/>
<path d="M20.6604 12.8682C20.7444 12.9882 20.7864 13.1142 20.7864 13.2462C20.7864 13.4262 20.7204 13.5702 20.5884 13.6782C20.4684 13.7742 20.3304 13.8222 20.1744 13.8222C20.0184 13.8222 19.8864 13.7562 19.7784 13.6242L14.7564 7.30622L12.3084 9.61022V13.1922C12.2964 13.3602 12.2364 13.4982 12.1284 13.6062C12.0204 13.7022 11.8884 13.7502 11.7324 13.7502C11.5644 13.7502 11.4264 13.7022 11.3184 13.6062C11.2224 13.4982 11.1744 13.3602 11.1744 13.1922V1.70822C11.1744 1.54022 11.2284 1.40821 11.3364 1.31221C11.4444 1.20421 11.5824 1.15021 11.7504 1.15021C11.9184 1.15021 12.0504 1.20421 12.1464 1.31221C12.2544 1.40821 12.3084 1.54022 12.3084 1.70822V8.24222L19.5804 1.36622C19.6884 1.24622 19.8204 1.18622 19.9764 1.18622C20.1204 1.18622 20.2404 1.24022 20.3364 1.34822C20.4444 1.45622 20.4984 1.57622 20.4984 1.70822C20.4984 1.85222 20.4444 1.97822 20.3364 2.08622L15.6204 6.49622L20.6604 12.8682Z" fill="#313131"/>
<path d="M24.4549 13.1922C24.4429 13.3482 24.3829 13.4802 24.2749 13.5882C24.1669 13.6962 24.0349 13.7502 23.8789 13.7502C23.7109 13.7502 23.5729 13.7022 23.4649 13.6062C23.3689 13.4982 23.3209 13.3602 23.3209 13.1922V1.70822C23.3209 1.54022 23.3749 1.40821 23.4829 1.31221C23.5909 1.20421 23.7289 1.15021 23.8969 1.15021C24.0529 1.15021 24.1849 1.20421 24.2929 1.31221C24.4009 1.42021 24.4549 1.55221 24.4549 1.70822V13.1922Z" fill="#313131"/>
<path d="M34.7869 12.6882C34.9429 12.6882 35.0689 12.7362 35.1649 12.8322C35.2729 12.9282 35.3269 13.0542 35.3269 13.2102C35.3269 13.3662 35.2729 13.4982 35.1649 13.6062C35.0689 13.7022 34.9429 13.7502 34.7869 13.7502H28.3609C28.2049 13.7502 28.0729 13.7022 27.9649 13.6062C27.8689 13.4982 27.8209 13.3662 27.8209 13.2102V1.69022C27.8209 1.53422 27.8749 1.40821 27.9829 1.31221C28.0909 1.20421 28.2289 1.15021 28.3969 1.15021C28.5529 1.15021 28.6849 1.20421 28.7929 1.31221C28.9009 1.40821 28.9549 1.53422 28.9549 1.69022V12.6882H34.7869Z" fill="#313131"/>
<path d="M44.3669 12.6882C44.5229 12.6882 44.6489 12.7362 44.7449 12.8322C44.8529 12.9282 44.9069 13.0542 44.9069 13.2102C44.9069 13.3662 44.8529 13.4982 44.7449 13.6062C44.6489 13.7022 44.5229 13.7502 44.3669 13.7502H37.9409C37.7849 13.7502 37.6529 13.7022 37.5449 13.6062C37.4489 13.4982 37.4009 13.3662 37.4009 13.2102V1.69022C37.4009 1.53422 37.4549 1.40821 37.5629 1.31221C37.6709 1.20421 37.8089 1.15021 37.9769 1.15021C38.1329 1.15021 38.2649 1.20421 38.3729 1.31221C38.4809 1.40821 38.5349 1.53422 38.5349 1.69022V12.6882H44.3669Z" fill="#313131"/>
<path d="M54.109 8.62022C54.265 8.62022 54.391 8.67422 54.487 8.78222C54.583 8.87822 54.631 9.00422 54.631 9.16022C54.631 9.29222 54.583 9.41222 54.487 9.52022C54.391 9.61622 54.265 9.66422 54.109 9.66422H50.959V12.9582C50.959 13.1262 50.905 13.2702 50.797 13.3902C50.689 13.4982 50.551 13.5522 50.383 13.5522C50.227 13.5522 50.089 13.4982 49.969 13.3902C49.861 13.2702 49.807 13.1322 49.807 12.9762V9.66422H46.675C46.519 9.66422 46.393 9.61622 46.297 9.52022C46.201 9.41222 46.153 9.28022 46.153 9.12422C46.153 8.98022 46.201 8.86022 46.297 8.76422C46.393 8.66822 46.519 8.62022 46.675 8.62022H49.807V5.34422C49.807 5.17622 49.861 5.03822 49.969 4.93022C50.077 4.82222 50.215 4.76822 50.383 4.76822C50.563 4.76822 50.701 4.82222 50.797 4.93022C50.905 5.02622 50.959 5.15822 50.959 5.32622V8.62022H54.109Z" fill="#313131"/>
<path d="M64.2164 8.62022C64.3724 8.62022 64.4984 8.67422 64.5944 8.78222C64.6904 8.87822 64.7384 9.00422 64.7384 9.16022C64.7384 9.29222 64.6904 9.41222 64.5944 9.52022C64.4984 9.61622 64.3724 9.66422 64.2164 9.66422H61.0664V12.9582C61.0664 13.1262 61.0124 13.2702 60.9044 13.3902C60.7964 13.4982 60.6584 13.5522 60.4904 13.5522C60.3344 13.5522 60.1964 13.4982 60.0764 13.3902C59.9684 13.2702 59.9144 13.1322 59.9144 12.9762V9.66422H56.7824C56.6264 9.66422 56.5004 9.61622 56.4044 9.52022C56.3084 9.41222 56.2604 9.28022 56.2604 9.12422C56.2604 8.98022 56.3084 8.86022 56.4044 8.76422C56.5004 8.66822 56.6264 8.62022 56.7824 8.62022H59.9144V5.34422C59.9144 5.17622 59.9684 5.03822 60.0764 4.93022C60.1844 4.82222 60.3224 4.76822 60.4904 4.76822C60.6704 4.76822 60.8084 4.82222 60.9044 4.93022C61.0124 5.02622 61.0664 5.15822 61.0664 5.32622V8.62022H64.2164Z" fill="#313131"/>
</svg>
