<svg width="24" height="24" viewBox="0 0 24 24" fill="none" xmlns="http://www.w3.org/2000/svg">
<path d="M3.0115 3.4984C3.01238 3.22288 3.23598 3 3.5115 3H20.4984C20.7752 3 20.9993 3.22483 20.9984 3.5016L20.9885 6.59251C20.9876 6.86803 20.764 7.09091 20.4885 7.09091H3.5016C3.22484 7.09091 3.00072 6.86607 3.00161 6.58931L3.0115 3.4984ZM13.3182 12C13.042 12 12.8182 11.7761 12.8182 11.5V8.40909C12.8182 8.13295 13.042 7.90909 13.3182 7.90909H20.5C20.7761 7.90909 21 8.13295 21 8.40909V11.5C21 11.7761 20.7761 12 20.5 12H13.3182ZM3.5 12C3.22386 12 3 11.7761 3 11.5V8.40909C3 8.13295 3.22386 7.90909 3.5 7.90909H10.6818C10.958 7.90909 11.1818 8.13295 11.1818 8.40909V11.5C11.1818 11.7761 10.958 12 10.6818 12H3.5Z" fill="white"/>
<path d="M3 13.3182C3 13.042 3.22386 12.8182 3.5 12.8182H10.6818C10.958 12.8182 11.1818 13.042 11.1818 13.3182V16.4091C11.1818 16.6852 10.958 16.9091 10.6818 16.9091H3.5C3.22386 16.9091 3 16.6852 3 16.4091V13.3182Z" fill="white"/>
<path d="M12.8182 13.3182C12.8182 13.042 13.042 12.8182 13.3182 12.8182H20.5C20.7761 12.8182 21 13.042 21 13.3182V16.4091C21 16.6852 20.7761 16.9091 20.5 16.9091H13.3182C13.042 16.9091 12.8182 16.6852 12.8182 16.4091V13.3182Z" fill="white"/>
<path d="M3.00201 20.498C3.0009 20.7749 3.22508 21 3.50201 21H20.5C20.7761 21 21 20.7761 21 20.5V18.2273C21 17.9511 20.7761 17.7273 20.5 17.7273H3.5111C3.23574 17.7273 3.01221 17.9499 3.0111 18.2253L3.00201 20.498Z" fill="white"/>
</svg>
