<svg width="24" height="24" viewBox="0 0 24 24" fill="none" xmlns="http://www.w3.org/2000/svg">
<path d="M3.0115 3.4984C3.01238 3.22288 3.23598 3 3.5115 3H20.4984C20.7752 3 20.9993 3.22483 20.9984 3.5016L20.9911 5.77433C20.9902 6.04984 20.7666 6.27273 20.4911 6.27273H3.50422C3.22746 6.27273 3.00334 6.04789 3.00423 5.77113L3.0115 3.4984ZM3.5 11.1818C3.22386 11.1818 3 10.958 3 10.6818V8.40909C3 8.13295 3.22386 7.90909 3.5 7.90909H20.4869C20.763 7.90909 20.9869 8.13295 20.9869 8.40909V10.6818C20.9869 10.958 20.763 11.1818 20.4869 11.1818H3.5Z" fill="#313131" fill-opacity="0.73"/>
<path d="M3 13.3182C3 13.042 3.22386 12.8182 3.5 12.8182H20.4869C20.763 12.8182 20.9869 13.042 20.9869 13.3182V15.5909C20.9869 15.8671 20.763 16.0909 20.4869 16.0909H3.5C3.22386 16.0909 3 15.8671 3 15.5909V13.3182Z" fill="#313131" fill-opacity="0.73"/>
<path d="M3.00201 20.498C3.0009 20.7749 3.22508 21 3.50201 21H20.5C20.7761 21 21 20.7761 21 20.5V18.2273C21 17.9511 20.7761 17.7273 20.5 17.7273H3.5111C3.23574 17.7273 3.01221 17.9499 3.0111 18.2253L3.00201 20.498Z" fill="#313131" fill-opacity="0.73"/>
</svg>
