<svg width="24" height="24" viewBox="0 0 24 24" fill="none" xmlns="http://www.w3.org/2000/svg">
<path d="M3.0123 3.4992C3.01274 3.22337 3.23647 3 3.5123 3H10.681C10.9575 3 11.1815 3.22435 11.181 3.5008L11.1695 10.6826C11.1691 10.9584 10.9454 11.1818 10.6695 11.1818H3.5008C3.22435 11.1818 3.00036 10.9575 3.0008 10.681L3.0123 3.4992Z" fill="#313131" fill-opacity="0.73"/>
<path d="M3 20.5C3 20.7761 3.22386 21 3.5 21H10.6941C10.9706 21 11.1946 20.7757 11.1941 20.4992L11.1826 13.3174C11.1822 13.0416 10.9584 12.8182 10.6826 12.8182H3.5C3.22386 12.8182 3 13.042 3 13.3182V20.5Z" fill="#313131" fill-opacity="0.73"/>
<path d="M12.8182 3.5C12.8182 3.22386 13.042 3 13.3182 3H20.5C20.7761 3 21 3.22386 21 3.5V10.6818C21 10.958 20.7761 11.1818 20.5 11.1818H13.3182C13.042 11.1818 12.8182 10.958 12.8182 10.6818V3.5Z" fill="#313131" fill-opacity="0.73"/>
<path d="M12.8182 13.3182C12.8182 13.042 13.042 12.8182 13.3182 12.8182H20.5C20.7761 12.8182 21 13.042 21 13.3182V20.5C21 20.7761 20.7761 21 20.5 21H13.3182C13.042 21 12.8182 20.7761 12.8182 20.5V13.3182Z" fill="#313131" fill-opacity="0.73"/>
</svg>
